<?xml version="1.0" encoding="UTF-8" standalone="no"?>
<!-- Created with Inkscape (http://www.inkscape.org/) -->

<svg width="100mm" height="100mm" viewBox="0 0 100 100" version="1.1" id="svg76155"
   xmlns:inkscape="http://www.inkscape.org/namespaces/inkscape"
   xmlns:sodipodi="http://sodipodi.sourceforge.net/DTD/sodipodi-0.dtd" xmlns="http://www.w3.org/2000/svg"
   xmlns:svg="http://www.w3.org/2000/svg">
   <sodipodi:namedview id="namedview76157" pagecolor="#d9d9d9" bordercolor="#d9d9d9" borderopacity="0.25"
      inkscape:showpageshadow="2" inkscape:pageopacity="0.0" inkscape:pagecheckerboard="0" inkscape:deskcolor="#d1d1d1"
      inkscape:document-units="mm" showgrid="false" />
   <defs id="defs76152" />
   <g inkscape:label="Layer 1" inkscape:groupmode="layer" id="layer1">
      <g id="g76596" transform="matrix(0.97163813,0,0,0.97163813,-3.802405,-9.916306)">
         <path
            style="display:inline;fill:none;stroke:#d9d9d9;stroke-width:3.00736;stroke-dasharray:none;stroke-opacity:1"
            d="m 28.617116,90.873646 c 0,0 -4.75659,-8.62733 -7.60555,-15.80314 -1.83039,-4.6103 -3.26752,-9.59618 -4.09645,-14.53631 -0.82072,-4.89119 -0.9596,-9.63597 -0.84518,-14.8163 0.15738,-7.12604 0.56666,-8.8033 1.13089,-13.17884 0.40164,-3.11461 1.60291,-7.40624 1.60291,-7.40624 0,0 2.43926,3.77098 4.18793,6.31812 1.67696,2.44271 1.35664,2.15339 3.71662,5.08479 2.01007,2.49679 2.29102,2.81492 4.31067,4.60773 0,0 1.60581,-3.89848 2.15247,-5.32373 1.66138,-4.33151 1.38567,-3.51913 2.03781,-5.29195 0.72218,-1.96322 1.51341,-3.95425 2.23432,-5.91786 0.69364,-1.88937 1.35463,-3.73865 2.00565,-5.64109 0.57352,-1.67596 1.53266,-5.08026 1.53266,-5.08026 0,0 1.82435,2.92533 2.88813,4.29228 1.41367,1.81653 1.45391,1.81712 2.94969,3.37066 1.37591,1.42904 1.37801,1.44102 3.40769,3.29496 0.70513,0.64406 2.33793,1.68791 2.33793,1.68791 0,0 1.29962,-1.1782 2.42298,-2.82031 3.30161,-4.82628 1.82552,-2.4232 3.60288,-5.23364 1.81908,-2.8764 2.36506,-3.71329 2.36506,-3.71329 0,0 3.00999,4.51501 4.69877,6.66224 1.062,1.35031 1.05106,1.34688 4.11983,4.55525 0,0 2.0175,-2.29422 2.65228,-3.08882 1.04399,-1.30678 2.87781,-4.03102 2.87781,-4.03102 0,0 4.17237,6.67406 5.95725,10.15668 2.14428,4.18386 1.97249,3.30727 5.68957,12.86362 2.48067,6.3776 5.09971,22.24983 5.09971,22.24983"
            id="path72104" inkscape:label="fire-2" sodipodi:nodetypes="csasscsscsssscssscsscscscasc" />
         <ellipse style="display:inline;fill:none;stroke:#d9d9d9;stroke-width:3.66737;stroke-dasharray:none"
            id="path64325" cx="59.897251" cy="77.339592" rx="34.483437" ry="33.951458" inkscape:label="circle"
            inkscape:export-filename="gif/clock8.png" inkscape:export-xdpi="96" inkscape:export-ydpi="96" />
         <path style="display:inline;fill:#d9d9d9;stroke-width:0.420744"
            d="m 60.180636,76.785616 c -0.26066,-0.44849 -0.42075,-1.03976 -0.35574,-1.31397 0.15084,-0.63661 11.1143,-7.6965 14.47389,-9.32039 1.40064,-0.67702 2.87561,-1.14722 3.27769,-1.04486 0.72254,0.18391 1.74596,1.53361 1.60713,2.11953 -0.12164,0.51347 -3.67595,2.46537 -5.61211,3.08198 -2.70761,0.86228 -5.86035,2.78513 -8.26336,5.03978 -2.82456,2.6502 -4.19898,3.03565 -5.12748,1.43793 z"
            id="path64418-1" inkscape:label="clock-hand" />
         <rect style="fill:#d9d9d9;fill-opacity:1;stroke:#d9d9d9;stroke-width:0;stroke-dasharray:none" id="rect64425"
            width="9.0861263" height="3.06932" x="85.658524" y="74.993828" rx="1.346953" ry="3.06932"
            inkscape:label="tick-3" />
         <rect style="fill:#d9d9d9;fill-opacity:1;stroke:#d9d9d9;stroke-width:0;stroke-dasharray:none" id="rect64425-5"
            width="9.5749016" height="2.8242874" x="24.872866" y="76.060371" rx="1.4194105" ry="2.8242874"
            inkscape:label="tick-6" />
         <rect style="fill:#d9d9d9;fill-opacity:1;stroke:#d9d9d9;stroke-width:0;stroke-dasharray:none" id="rect64425-9"
            width="9.3549595" height="3.0884123" x="-54.383129" y="57.432739" rx="1.3868058" ry="3.0884123"
            transform="matrix(-0.01808428,-0.99983647,0.99985153,-0.01723133,0,0)" inkscape:label="tick-1" />
         <rect style="fill:#d9d9d9;fill-opacity:1;stroke:#d9d9d9;stroke-width:0;stroke-dasharray:none"
            id="rect64425-9-0" width="9.5999403" height="3.0884366" x="-111.6153" y="56.509895" rx="1.4231223"
            ry="3.0884366" transform="matrix(-0.01762279,-0.99984471,0.99984365,-0.01768258,0,0)"
            inkscape:label="tick-5" />
         <rect style="fill:#d9d9d9;fill-opacity:1;stroke:#d9d9d9;stroke-width:0;stroke-dasharray:none" id="rect64427"
            width="10.772586" height="2.9610884" x="11.266649" y="97.015686" rx="1.5969585" ry="2.9610884"
            transform="matrix(0.68193742,-0.73141052,0.70699014,0.7072234,0,0)" />
         <rect style="fill:#d9d9d9;fill-opacity:1;stroke:#d9d9d9;stroke-width:0;stroke-dasharray:none" id="rect64427-0"
            width="10.295341" height="2.8391545" x="119.65666" y="8.5598993" rx="1.5262103" ry="2.8391545"
            transform="matrix(0.69868279,0.71543159,-0.67337744,0.73929887,0,0)" inkscape:label="tick-4" />
         <rect style="fill:#d9d9d9;fill-opacity:1;stroke:#d9d9d9;stroke-width:0;stroke-dasharray:none" id="rect64427-5"
            width="10.772586" height="2.9610884" x="62.469597" y="-11.451914" rx="1.5969585" ry="2.9610884"
            transform="matrix(0.68193742,0.73141052,0.70699014,-0.7072234,0,0)" inkscape:label="tick-8" />
         <rect style="fill:#d9d9d9;fill-opacity:1;stroke:#d9d9d9;stroke-width:0;stroke-dasharray:none"
            id="rect64427-5-2" width="9.9831982" height="2.7531729" x="31.44972" y="94.672798" rx="1.4799376"
            ry="2.7531729" transform="matrix(-0.69831536,0.71579023,0.67299932,0.7396431,0,0)"
            inkscape:label="tick-6" />
         <path style="fill:#d9d9d9;fill-opacity:1;stroke:none;stroke-width:0.672215;stroke-dasharray:none"
            d="m 56.324936,42.576416 c 0.36889,-1.21642 0.748,-2.43268 0.98631,-3.67022 0.12094,-0.62803 0.2429,-1.26304 0.22377,-1.89873 -0.0168,-0.55854 0.004,-1.15742 -0.29671,-1.65825 -0.22865,-0.38071 -0.61226,-0.73317 -1.0797,-0.91278 -1.0172,-0.39086 -2.23837,-0.14276 -3.35819,-0.20689 -0.90236,-0.0517 -1.85484,0.10407 -2.70803,-0.1433 -0.38071,-0.11039 -0.77102,-0.33822 -0.99042,-0.57357 -0.12249,-0.53273 -0.40305,-1.05489 -0.39264,-1.59842 0.0125,-0.64998 -0.0418,-1.46113 0.54252,-1.89836 1.28718,-0.96318 3.44708,-0.5961 5.17015,-0.58104 3.27621,0.0286 6.22483,0.0305 9.35946,0.0207 0,0 3.34383,-0.37042 4.47066,0.44615 0.42424,0.30744 0.35103,0.89105 0.41607,1.35327 0.0611,0.43408 0.12272,0.89163 -0.0275,1.31074 -0.15197,0.42398 -0.44056,0.841 -0.85103,1.12597 -0.38613,0.26806 -0.92122,0.34646 -1.4032,0.47076 -1.39971,0.36097 -3.28741,-0.0871 -4.29408,0.79117 -0.49917,0.43553 -0.33525,1.17424 -0.35235,1.7729 -0.0255,0.89436 0.12885,1.79462 0.3746,2.66604 0.26258,0.93112 0.5631,1.88514 1.16519,2.70246 0.17079,0.23183 0.4188,0.41562 0.67295,0.59558 -2.54262,-0.038 -5.08523,-0.0762 -7.62785,-0.11419 z"
            id="path71316" sodipodi:nodetypes="caaaaaacaascaaaaaaaaaccc" inkscape:label="button" />
         <ellipse style="fill:#d9d9d9;fill-opacity:1;stroke:none;stroke-width:0.69684;stroke-dasharray:none"
            id="path71328" cx="59.897251" cy="77.339592" rx="3.2897031" ry="3.2983828" inkscape:label="center" />
      </g>
   </g>
</svg>