<?xml version="1.0" encoding="UTF-8" standalone="no"?>
<!-- Created with Inkscape (http://www.inkscape.org/) -->

<svg width="100mm" height="100mm" viewBox="0 0 100 100" version="1.1" id="svg97811" xmlns="http://www.w3.org/2000/svg"
   xmlns:svg="http://www.w3.org/2000/svg">
   <defs id="defs97808" />
   <g id="layer1">
      <g id="g97438" transform="matrix(1.2672223,0,0,1.270859,-138.51741,-193.3309)">
         <path
            style="fill:none;fill-opacity:1;stroke:#d9d9d9;stroke-width:2.94981;stroke-linejoin:round;stroke-dasharray:none"
            d="m 143.62978,205.75244 c -2.7552,1.49168 -8.03673,4.30205 -11.10904,5.62015 -5.13389,2.20256 -16.20574,4.46975 -16.20574,4.46975 0,0 3.63964,-9.94053 6.41377,-14.40605 2.2762,-3.66397 8.85626,-9.78655 8.85626,-9.78655 0,0 -4.73757,-3.67423 -6.59822,-5.96116 -2.1122,-2.5961 -3.61224,-4.86669 -5.03544,-8.62822 -1.42319,-3.76154 -2.40857,-9.12571 -2.40857,-9.12571 0,0 9.39981,0.9735 13.7451,2.62674 3.77741,1.43718 10.34953,6.20031 10.34953,6.20031 0,0 0.89827,-7.33491 2.10718,-10.81124 1.47629,-4.24522 6.20039,-12.02703 6.20039,-12.02703 0,0 2.23934,4.24054 3.36321,7.10022 1.12386,2.85969 1.76199,5.40234 2.33788,7.7815 0.8288,3.42398 0.66328,9.4107 0.66328,9.4107 0,0 4.0043,-1.86178 9.12365,-3.07184 4.75211,-1.12324 14.31888,-0.64029 14.31888,-0.64029 0,0 -1.58792,6.80862 -6.98946,12.18756 -5.26379,5.24176 -7.45713,6.49531 -7.45713,6.49531 0,0 4.51181,3.38631 6.51718,5.34064 2.1583,2.10336 4.25657,4.31802 5.88743,6.82532 1.49954,2.30539 3.50362,7.43323 3.50362,7.43323 0,0 -9.13245,0.11694 -13.61932,-0.57735 -4.20718,-0.65101 -8.39952,-1.69613 -12.30582,-3.3389 -3.03732,-1.27732 -6.24828,-4.2062 -8.4852,-4.99614 0,0 -2.07867,1.28634 -3.17342,1.87905 z"
            id="path95153" />
         <path style="fill:#d9d9d9;fill-opacity:1;stroke:none;stroke-width:3.14335;stroke-dasharray:none"
            d="m 149.35884,206.41626 -1.35018,4.40302 c 0,0 -0.68215,2.70299 -0.82341,4.07967 -0.14184,1.38225 -0.17553,2.78365 -0.021,4.16476 0.16153,1.44323 0.43977,2.89568 0.98562,4.25852 0.45955,1.14736 0.95432,2.39838 1.89972,3.22962 0.52522,0.46179 0.97724,0.73976 1.48564,1.10811 0.29015,0.21022 0.59342,0.41511 0.71371,0.77701 0.0667,0.20075 -0.0188,0.53974 -0.10682,0.73352 -0.0934,0.20554 -0.15368,0.33089 -0.41126,0.56231 -0.29554,0.26554 -0.67558,0.47758 -1.05912,0.62228 -0.27119,0.10232 -0.70857,0.15394 -1.00087,0.1295 -0.61744,-0.0516 -1.0546,-0.25708 -1.52097,-0.62924 -0.79488,-0.63433 -1.55432,-2.51694 -1.55432,-2.51694 0,0 -1.54499,-3.09454 -2.07242,-4.71928 -0.52171,-1.60715 -0.97885,-3.24036 -1.06675,-4.93302 -0.0867,-1.67077 0.53816,-5.0061 0.53816,-5.0061 0,0 0.78092,-3.42945 1.04668,-5.16258 0.16801,-1.09551 0.34541,-3.30349 0.34541,-3.30349 l 3.79946,1.41578 v 0"
            id="path95170" />
      </g>
   </g>
</svg>