<?xml version="1.0" encoding="UTF-8" standalone="no"?>
<!-- Created with Inkscape (http://www.inkscape.org/) -->

<svg width="100mm" height="100mm" viewBox="0 0 100 100" version="1.1" id="svg94918"
   inkscape:version="1.2.2 (b0a84865, 2022-12-01)" sodipodi:docname="tool-export.svg"
   xmlns:inkscape="http://www.inkscape.org/namespaces/inkscape"
   xmlns:sodipodi="http://sodipodi.sourceforge.net/DTD/sodipodi-0.dtd" xmlns="http://www.w3.org/2000/svg"
   xmlns:svg="http://www.w3.org/2000/svg">
   <sodipodi:namedview id="namedview94920" pagecolor="#ffffff" bordercolor="#d9d9d9" borderopacity="0.25"
      inkscape:showpageshadow="2" inkscape:pageopacity="0.0" inkscape:pagecheckerboard="0" inkscape:deskcolor="#d1d1d1"
      inkscape:document-units="mm" showgrid="false" inkscape:zoom="2.3786088" inkscape:cx="117.08525"
      inkscape:cy="178.25546" inkscape:window-width="1728" inkscape:window-height="1052" inkscape:window-x="0"
      inkscape:window-y="65" inkscape:window-maximized="0" inkscape:current-layer="layer1" />
   <defs id="defs94915" />
   <g inkscape:label="Layer 1" inkscape:groupmode="layer" id="layer1">
      <path style="fill:none;stroke:#d9d9d9;stroke-width:4.62899;stroke-linejoin:round;stroke-dasharray:none"
         d="m 65.204191,49.376507 c 4.450124,7.095876 11.337927,19.126178 15.92446,26.132409 0,0 2.560785,4.07664 3.005627,6.39174 0.298588,1.553957 0.230575,3.244186 -0.282281,4.740111 -0.49168,1.434149 -1.353429,2.849782 -2.570212,3.741874 -1.38877,1.018188 -3.099601,1.430492 -4.932149,1.495973 -2.837215,-0.06554 -5.601249,-1.368404 -7.310214,-3.211586 -1.222273,-1.316296 -3.11196,-3.695803 -3.11196,-3.695803 L 48.460057,57.174852 41.331343,56.346237 c 0,0 -5.645587,-0.859803 -8.322491,-1.810544 -3.417736,-1.213858 -6.967193,-2.534209 -9.717828,-4.913703 -2.679117,-2.317636 -4.809236,-5.406492 -6.132601,-8.707227 -1.178678,-2.939849 -1.64338,-6.242444 -1.418165,-9.405544 0.217199,-3.050473 1.174563,-6.102346 2.638691,-8.780298 0.998064,-1.825499 4.058496,-4.727763 4.058496,-4.727763 L 33.8752,38.779392 50.307359,42.511812 55.018622,26.748867 45.329183,8.2063156 c 0,0 5.720443,-0.3159357 8.491775,0.2724471 2.724339,0.5784008 5.468849,1.5426523 7.746789,3.1492073 2.453878,1.730639 4.494528,4.122288 5.996654,6.722336 1.309962,2.267429 2.109652,4.86446 2.466445,7.458672 0.357257,2.597589 0.01568,5.26307 -0.361782,7.8578 -0.418997,2.880255 -1.312503,5.673421 -2.10022,8.475373 -0.430271,1.530498 -1.433179,4.549065 -1.433179,4.549065 z"
         id="path94838" sodipodi:nodetypes="ccaaacccccaaaaacccccaaaaaacc" />
   </g>
</svg>