<?xml version="1.0" encoding="UTF-8"?>
<!-- Created with Inkscape (http://www.inkscape.org/) -->
<svg width="100mm" height="100mm" version="1.1" viewBox="0 0 100 100" xmlns="http://www.w3.org/2000/svg">
 <g transform="matrix(.97164 0 0 .97164 -3.8024 -9.9163)">
  <path d="m28.617 90.874s-4.7566-8.6273-7.6056-15.803c-1.8304-4.6103-3.2675-9.5962-4.0964-14.536-0.82072-4.8912-0.9596-9.636-0.84518-14.816 0.15738-7.126 0.56666-8.8033 1.1309-13.179 0.40164-3.1146 1.6029-7.4062 1.6029-7.4062s2.4393 3.771 4.1879 6.3181c1.677 2.4427 1.3566 2.1534 3.7166 5.0848 2.0101 2.4968 2.291 2.8149 4.3107 4.6077 0 0 1.6058-3.8985 2.1525-5.3237 1.6614-4.3315 1.3857-3.5191 2.0378-5.292 0.72218-1.9632 1.5134-3.9542 2.2343-5.9179 0.69364-1.8894 1.3546-3.7386 2.0056-5.6411 0.57352-1.676 1.5327-5.0803 1.5327-5.0803s1.8244 2.9253 2.8881 4.2923c1.4137 1.8165 1.4539 1.8171 2.9497 3.3707 1.3759 1.429 1.378 1.441 3.4077 3.295 0.70513 0.64406 2.3379 1.6879 2.3379 1.6879s1.2996-1.1782 2.423-2.8203c3.3016-4.8263 1.8255-2.4232 3.6029-5.2336 1.8191-2.8764 2.3651-3.7133 2.3651-3.7133s3.01 4.515 4.6988 6.6622c1.062 1.3503 1.0511 1.3469 4.1198 4.5552 0 0 2.0175-2.2942 2.6523-3.0888 1.044-1.3068 2.8778-4.031 2.8778-4.031s4.1724 6.6741 5.9572 10.157c2.1443 4.1839 1.9725 3.3073 5.6896 12.864 2.4807 6.3776 5.0997 22.25 5.0997 22.25" fill="none" stroke="#d9d9d9" stroke-width="3.0074"/>
  <ellipse cx="59.897" cy="77.34" rx="34.483" ry="33.951" fill="none" stroke="#d9d9d9" stroke-width="3.6674"/>
  <g fill="#d9d9d9">
   <path d="m60.181 76.786c-0.26066-0.44849-0.42075-1.0398-0.35574-1.314 0.15084-0.63661 11.114-7.6965 14.474-9.3204 1.4006-0.67702 2.8756-1.1472 3.2777-1.0449 0.72254 0.18391 1.746 1.5336 1.6071 2.1195-0.12164 0.51347-3.676 2.4654-5.6121 3.082-2.7076 0.86228-5.8604 2.7851-8.2634 5.0398-2.8246 2.6502-4.199 3.0356-5.1275 1.4379z" stroke-width=".42074"/>
   <g>
    <g stroke-width="0">
     <rect x="85.659" y="74.994" width="9.0861" height="3.0693" rx="1.347" ry="3.0693"/>
     <rect x="24.873" y="76.06" width="9.5749" height="2.8243" rx="1.4194" ry="2.8243"/>
     <rect transform="matrix(-.018084 -.99984 .99985 -.017231 0 0)" x="-54.383" y="57.433" width="9.355" height="3.0884" rx="1.3868" ry="3.0884"/>
     <rect transform="matrix(-.017623 -.99984 .99984 -.017683 0 0)" x="-111.62" y="56.51" width="9.5999" height="3.0884" rx="1.4231" ry="3.0884"/>
     <rect transform="matrix(.68194 -.73141 .70699 .70722 0 0)" x="11.267" y="97.016" width="10.773" height="2.9611" rx="1.597" ry="2.9611"/>
     <rect transform="matrix(.69868 .71543 -.67338 .7393 0 0)" x="119.66" y="8.5599" width="10.295" height="2.8392" rx="1.5262" ry="2.8392"/>
     <rect transform="matrix(.68194 .73141 .70699 -.70722 0 0)" x="62.47" y="-11.452" width="10.773" height="2.9611" rx="1.597" ry="2.9611"/>
     <rect transform="matrix(-.69832 .71579 .673 .73964 0 0)" x="31.45" y="94.673" width="9.9832" height="2.7532" rx="1.4799" ry="2.7532"/>
    </g>
    <path d="m56.325 42.576c0.36889-1.2164 0.748-2.4327 0.98631-3.6702 0.12094-0.62803 0.2429-1.263 0.22377-1.8987-0.0168-0.55854 4e-3 -1.1574-0.29671-1.6582-0.22865-0.38071-0.61226-0.73317-1.0797-0.91278-1.0172-0.39086-2.2384-0.14276-3.3582-0.20689-0.90236-0.0517-1.8548 0.10407-2.708-0.1433-0.38071-0.11039-0.77102-0.33822-0.99042-0.57357-0.12249-0.53273-0.40305-1.0549-0.39264-1.5984 0.0125-0.64998-0.0418-1.4611 0.54252-1.8984 1.2872-0.96318 3.4471-0.5961 5.1702-0.58104 3.2762 0.0286 6.2248 0.0305 9.3595 0.0207 0 0 3.3438-0.37042 4.4707 0.44615 0.42424 0.30744 0.35103 0.89105 0.41607 1.3533 0.0611 0.43408 0.12272 0.89163-0.0275 1.3107-0.15197 0.42398-0.44056 0.841-0.85103 1.126-0.38613 0.26806-0.92122 0.34646-1.4032 0.47076-1.3997 0.36097-3.2874-0.0871-4.2941 0.79117-0.49917 0.43553-0.33525 1.1742-0.35235 1.7729-0.0255 0.89436 0.12885 1.7946 0.3746 2.666 0.26258 0.93112 0.5631 1.8851 1.1652 2.7025 0.17079 0.23183 0.4188 0.41562 0.67295 0.59558-2.5426-0.038-5.0852-0.0762-7.6278-0.11419z"/>
    <ellipse cx="59.897" cy="77.34" rx="3.2897" ry="3.2984"/>
   </g>
  </g>
 </g>
</svg>
