<?xml version="1.0" encoding="UTF-8"?>
<!-- Created with Inkscape (http://www.inkscape.org/) -->
<svg width="100mm" height="100mm" version="1.1" viewBox="0 0 100 100" xmlns="http://www.w3.org/2000/svg">
 <defs>
  <marker id="EmptyTriangleIn" overflow="visible" markerHeight="6.7330775" markerWidth="5.8241119" orient="auto-start-reverse" preserveAspectRatio="xMidYMid" viewBox="0 0 5.8241121 6.7330776">
   <path transform="scale(.5)" d="m5.77 0-8.65 5v-10z" fill="#d9d9d9" fill-rule="evenodd" stroke="context-stroke" stroke-width="2"/>
  </marker>
 </defs>
 <g display="none">
  <g transform="translate(-7.1745 -30.089)">
   <path d="m54.278 58.18c-0.81654-0.05371-1.6365 0.38961-1.8418 1.2188-0.31202 1.2075-0.36378 2.5118-0.14453 3.7363 0.54805 0.94598 1.859 1.2797 2.8861 1.0384 1.513-0.2867 3.0964-1.7079 2.6821-3.3694-0.0792-0.53256-0.44335-0.96158-0.77329-1.3193-0.4821-1.0572-1.7461-1.3663-2.8086-1.3047z" fill="#d9d9d9" stroke-width=".20556"/>
   <path d="m56.108 68.684c-1.3625-0.01966-2.566 1.3253-2.4805 2.6504 0.29017 0.87161 0.96426 1.6003 0.93136 2.5721 0.49035 3.5067 0.70486 7.0424 1.1313 10.569 0.35176 4.3305-0.13298 8.7686 0.11312 13.137 0.33257 1.2187 1.8953 1.7073 3.0137 1.3887 1.1208-0.42816 2.0663-1.7276 1.541-2.9356-0.46255-1.2583-0.2306-2.6414-0.32842-3.9592-0.0344-4.1701 0.039-8.3546-0.49867-12.499-0.28231-2.9673-0.33486-5.9517-0.58434-8.9162-0.17734-1.2251-1.3478-2.1597-2.587-2.0075-0.0839 4.65e-4 -0.16771 9.31e-4 -0.25156 0.0014z" fill="#d9d9d9" stroke-width=".20556"/>
   <path d="m46.819 47.088c-9.0418 4.4963-15.762 14.064-18.469 24.013-2.6906 9.357-2.5387 19.866 1.7843 28.712 4.2013 7.8993 12.201 13.73 21.153 14.797 6.4771 0.7145 13.507 0.51903 19.336-2.3387 6.2257-3.0518 11.839-8.4428 14.623-14.793 3.2526-7.4201 3.0885-16.417 1.1328-24.279-1.7988-7.2314-6.295-13.796-11.383-19.24-2.8174-3.0153-7.2579-5.9176-10.203-7.0111-5.6169-2.085-12.609-2.528-17.974 0.13978z" fill="none" stroke="#d9d9d9" stroke-width="3.928"/>
  </g>
 </g>
 <g fill="none" stroke="#d9d9d9">
  <path d="m43.802 70.918v10.085" display="none" stroke-width="3.9612"/>
  <g stroke-linejoin="round" stroke-width="3.8662">
   <path d="m87.392 15.914v68.385l-63.694 0.014216-11.024-9.9324-0.066887-58.695z"/>
   <path d="m70.855 17.328-0.3137 34.382-41.092-0.32436-0.31367-33.733"/>
   <path d="m36.513 82.948 0.01379-14.879 26.937-0.01563 0.01379 14.547"/>
  </g>
  <path d="m45.25 42.439c3.3917 1.4644 7.5001 1.1347 10.615-0.85193 1.5222-0.9709 2.8131-2.3187 3.6518-3.9175 0.83868-1.5989 1.2144-3.4489 0.99217-5.2407-0.29905-2.4113-1.6716-4.6211-3.5383-6.1765-2.3077-1.9229-5.4504-2.8934-8.4034-2.3428-2.2803 0.42521-4.3809 1.748-5.7497 3.6207" marker-end="url(#EmptyTriangleIn)" stroke-width="2.1825"/>
 </g>
</svg>
