<?xml version="1.0" encoding="UTF-8"?>
<!-- Created with Inkscape (http://www.inkscape.org/) -->
<svg width="100mm" height="100mm" version="1.1" viewBox="0 0 100 100" xmlns="http://www.w3.org/2000/svg">
 <g transform="matrix(1.2672 0 0 1.2709 -138.52 -193.33)">
  <path d="m143.63 205.75c-2.7552 1.4917-8.0367 4.302-11.109 5.6202-5.1339 2.2026-16.206 4.4698-16.206 4.4698s3.6396-9.9405 6.4138-14.406c2.2762-3.664 8.8563-9.7866 8.8563-9.7866s-4.7376-3.6742-6.5982-5.9612c-2.1122-2.5961-3.6122-4.8667-5.0354-8.6282-1.4232-3.7615-2.4086-9.1257-2.4086-9.1257s9.3998 0.9735 13.745 2.6267c3.7774 1.4372 10.35 6.2003 10.35 6.2003s0.89827-7.3349 2.1072-10.811c1.4763-4.2452 6.2004-12.027 6.2004-12.027s2.2393 4.2405 3.3632 7.1002c1.1239 2.8597 1.762 5.4023 2.3379 7.7815 0.8288 3.424 0.66328 9.4107 0.66328 9.4107s4.0043-1.8618 9.1236-3.0718c4.7521-1.1232 14.319-0.64029 14.319-0.64029s-1.5879 6.8086-6.9895 12.188c-5.2638 5.2418-7.4571 6.4953-7.4571 6.4953s4.5118 3.3863 6.5172 5.3406c2.1583 2.1034 4.2566 4.318 5.8874 6.8253 1.4995 2.3054 3.5036 7.4332 3.5036 7.4332s-9.1324 0.11694-13.619-0.57735c-4.2072-0.65101-8.3995-1.6961-12.306-3.3389-3.0373-1.2773-6.2483-4.2062-8.4852-4.9961 0 0-2.0787 1.2863-3.1734 1.879z" fill="none" stroke="#d9d9d9" stroke-linejoin="round" stroke-width="2.9498"/>
  <path d="m149.36 206.42-1.3502 4.403s-0.68215 2.703-0.82341 4.0797c-0.14184 1.3822-0.17553 2.7836-0.021 4.1648 0.16153 1.4432 0.43977 2.8957 0.98562 4.2585 0.45955 1.1474 0.95432 2.3984 1.8997 3.2296 0.52522 0.46179 0.97724 0.73976 1.4856 1.1081 0.29015 0.21022 0.59342 0.41511 0.71371 0.77701 0.0667 0.20075-0.0188 0.53974-0.10682 0.73352-0.0934 0.20554-0.15368 0.33089-0.41126 0.56231-0.29554 0.26554-0.67558 0.47758-1.0591 0.62228-0.27119 0.10232-0.70857 0.15394-1.0009 0.1295-0.61744-0.0516-1.0546-0.25708-1.521-0.62924-0.79488-0.63433-1.5543-2.5169-1.5543-2.5169s-1.545-3.0945-2.0724-4.7193c-0.52171-1.6072-0.97885-3.2404-1.0668-4.933-0.0867-1.6708 0.53816-5.0061 0.53816-5.0061s0.78092-3.4294 1.0467-5.1626c0.16801-1.0955 0.34541-3.3035 0.34541-3.3035l3.7995 1.4158" fill="#d9d9d9"/>
 </g>
</svg>
