<?xml version="1.0" encoding="UTF-8"?>
<!-- Created with Inkscape (http://www.inkscape.org/) -->
<svg width="100mm" height="100mm" version="1.1" viewBox="0 0 100 100" xmlns="http://www.w3.org/2000/svg">
 <defs>
  <marker id="marker5756" overflow="visible" markerHeight="6.7330775" markerWidth="5.8241119" orient="auto-start-reverse" preserveAspectRatio="xMidYMid" viewBox="0 0 5.8241121 6.7330776">
   <path transform="scale(.5)" d="m5.77 0-8.65 5v-10z" fill="context-fill" fill-rule="evenodd" stroke="context-stroke" stroke-width="2"/>
  </marker>
  <marker id="EmptyTriangleIn" overflow="visible" markerHeight="6.7330775" markerWidth="5.8241119" orient="auto-start-reverse" preserveAspectRatio="xMidYMid" viewBox="0 0 5.8241121 6.7330776">
   <path transform="scale(.5)" d="m5.77 0-8.65 5v-10z" fill="context-fill" fill-rule="evenodd" stroke="context-stroke" stroke-width="2"/>
  </marker>
 </defs>
 <g display="none">
  <g transform="translate(-7.1745 -30.089)">
   <path d="m54.278 58.18c-0.81654-0.05371-1.6365 0.38961-1.8418 1.2188-0.31202 1.2075-0.36378 2.5118-0.14453 3.7363 0.54805 0.94598 1.859 1.2797 2.8861 1.0384 1.513-0.2867 3.0964-1.7079 2.6821-3.3694-0.0792-0.53256-0.44335-0.96158-0.77329-1.3193-0.4821-1.0572-1.7461-1.3663-2.8086-1.3047z" fill="#d9d9d9" stroke-width=".20556"/>
   <path d="m56.108 68.684c-1.3625-0.01966-2.566 1.3253-2.4805 2.6504 0.29017 0.87161 0.96426 1.6003 0.93136 2.5721 0.49035 3.5067 0.70486 7.0424 1.1313 10.569 0.35176 4.3305-0.13298 8.7686 0.11312 13.137 0.33257 1.2187 1.8953 1.7073 3.0137 1.3887 1.1208-0.42816 2.0663-1.7276 1.541-2.9356-0.46255-1.2583-0.2306-2.6414-0.32842-3.9592-0.0344-4.1701 0.039-8.3546-0.49867-12.499-0.28231-2.9673-0.33486-5.9517-0.58434-8.9162-0.17734-1.2251-1.3478-2.1597-2.587-2.0075-0.0839 4.65e-4 -0.16771 9.31e-4 -0.25156 0.0014z" fill="#d9d9d9" stroke-width=".20556"/>
   <path d="m46.819 47.088c-9.0418 4.4963-15.762 14.064-18.469 24.013-2.6906 9.357-2.5387 19.866 1.7843 28.712 4.2013 7.8993 12.201 13.73 21.153 14.797 6.4771 0.7145 13.507 0.51903 19.336-2.3387 6.2257-3.0518 11.839-8.4428 14.623-14.793 3.2526-7.4201 3.0885-16.417 1.1328-24.279-1.7988-7.2314-6.295-13.796-11.383-19.24-2.8174-3.0153-7.2579-5.9176-10.203-7.0111-5.6169-2.085-12.609-2.528-17.974 0.13978z" fill="none" stroke="#d9d9d9" stroke-width="3.928"/>
  </g>
 </g>
 <path d="m85.83 17.346v65.519l-58.478 0.01362-12.959-12.512-0.2139-53.239z" display="none" fill="none" stroke="#d9d9d9" stroke-linejoin="round" stroke-width="4.2591"/>
 <path d="m69.986 18.7-0.30055 32.941-39.37-0.31076-0.30053-32.32" display="none" fill="none" stroke="#d9d9d9" stroke-linejoin="round" stroke-width="4.8568"/>
 <g transform="translate(0 -.52917)" fill="none" stroke="#d9d9d9">
  <path d="m36.874 81.82 0.01342-10.357 26.224-0.01088 0.01342 10.126" display="none" stroke-linejoin="round" stroke-width="3.7396"/>
  <path d="m43.802 71.447v10.085" display="none" stroke-width="3.9612"/>
 </g>
 <g fill="none" stroke="#d9d9d9">
  <path d="m45.453 42.759c3.2496 1.4031 7.1858 1.0871 10.17-0.81623 1.4584-0.93021 2.6952-2.2215 3.4988-3.7534s1.1635-3.3044 0.95059-5.0211c-0.28652-2.3103-1.6015-4.4274-3.39-5.9177-2.211-1.8423-5.222-2.7722-8.0512-2.2446-2.1848 0.40739-4.1973 1.6747-5.5087 3.469" display="none" marker-end="url(#EmptyTriangleIn)" stroke-width="2.0911"/>
  <rect x="10.752" y="27.541" width="78.496" height="45.207" stroke-linejoin="round" stroke-width="3.7042"/>
  <g stroke-linecap="round" stroke-linejoin="round">
   <path d="m33.821 76.034 16.578 18.066 16.18-17.98" display="none" stroke-width="2.6472"/>
   <path d="m37.209 23.339 12.946-13.007 12.635 12.946" stroke-width="3.7042"/>
   <path d="m51.042 15.517-0.35661 10.114" display="none" marker-start="url(#marker5756)" stroke-width="3.5395"/>
   <path d="m62.791 77.018-12.946 13.007-12.635-12.946" stroke-width="3.7042"/>
  </g>
 </g>
</svg>
