<?xml version="1.0" encoding="UTF-8"?>
<!-- Created with Inkscape (http://www.inkscape.org/) -->
<svg width="100mm" height="100mm" version="1.1" viewBox="0 0 100 100" xmlns="http://www.w3.org/2000/svg">
 <path d="m65.204 49.377c4.4501 7.0959 11.338 19.126 15.924 26.132 0 0 2.5608 4.0766 3.0056 6.3917 0.29859 1.554 0.23058 3.2442-0.28228 4.7401-0.49168 1.4341-1.3534 2.8498-2.5702 3.7419-1.3888 1.0182-3.0996 1.4305-4.9321 1.496-2.8372-0.06554-5.6012-1.3684-7.3102-3.2116-1.2223-1.3163-3.112-3.6958-3.112-3.6958l-17.467-27.796-7.1287-0.82862s-5.6456-0.8598-8.3225-1.8105c-3.4177-1.2139-6.9672-2.5342-9.7178-4.9137-2.6791-2.3176-4.8092-5.4065-6.1326-8.7072-1.1787-2.9398-1.6434-6.2424-1.4182-9.4055 0.2172-3.0505 1.1746-6.1023 2.6387-8.7803 0.99806-1.8255 4.0585-4.7278 4.0585-4.7278l11.438 20.778 16.432 3.7324 4.7113-15.763-9.6894-18.543s5.7204-0.31594 8.4918 0.27245c2.7243 0.5784 5.4688 1.5427 7.7468 3.1492 2.4539 1.7306 4.4945 4.1223 5.9967 6.7223 1.31 2.2674 2.1097 4.8645 2.4664 7.4587 0.35726 2.5976 0.01568 5.2631-0.36178 7.8578-0.419 2.8803-1.3125 5.6734-2.1002 8.4754-0.43027 1.5305-1.4332 4.5491-1.4332 4.5491z" fill="none" stroke="#d9d9d9" stroke-linejoin="round" stroke-width="4.629"/>
</svg>
